<svg width="48" height="48" viewBox="0 0 48 48" fill="none" xmlns="http://www.w3.org/2000/svg">
<rect width="48" height="48" fill="#1E1E1E"/>
<g id="Desktop">
<rect width="1440" height="6228" transform="translate(-96 -2966)" fill="white"/>
<g id="Frame 1000007743">
<rect width="1440" height="1569" transform="translate(-96 -1140)" fill="white"/>
<g id="Frame 1000007741">
<g id="Background">
<rect width="1440" height="501" transform="translate(-96 -464)" fill="#D6BBFB"/>
</g>
<g id="Background_2">
<rect width="1440" height="501" transform="translate(-96 -268)" fill="#84CAFF"/>
<g id="Frame 1000007740">
<g id="Frame 1000007735">
<path id="Get started instantly with our local-first builder. No signups. No tracking. Just a clean starter kit that runs on your device &#226;&#128;&#148; giving you full control from the very first click." d="M-14.32 11.36V-0.160001L-11.68 -2.8H-4.336L-1.792 -0.256001V1.28H-3.616V0.344L-5.152 -1.168H-10.864L-12.496 0.44V10.76L-10.864 12.368H-5.248L-3.616 10.76V6.872H-7.408V5.24H-1.792V11.36L-4.432 14H-11.68L-14.32 11.36ZM0.736251 11.792V4.256L2.94425 2.048H8.96825L11.2003 4.256V8.552H2.51225V11.24L3.71225 12.416H8.20025L9.40025 11.24V10.328H11.1763V11.792L8.96825 14H2.94425L0.736251 11.792ZM9.42425 7.016V4.808L8.22425 3.632H3.71225L2.51225 4.808V7.016H9.42425ZM15.0294 11.792V3.608H12.8694V2.048H15.0774V-1.84H16.8054V2.048H20.5494V3.608H16.8054V11.24L18.0054 12.44H20.5494V14H17.2374L15.0294 11.792ZM27.6003 12.032V10.544H29.3763V11.528L30.3363 12.464H34.7523L35.7123 11.528V9.68L34.7523 8.72H29.5923L27.6963 6.824V4.016L29.6643 2.048H35.2803L37.2483 4.016V5.504H35.4723V4.52L34.5123 3.584H30.4323L29.4723 4.52V6.272L30.4323 7.232H35.5203L37.4883 9.2V12.032L35.5203 14H29.5683L27.6003 12.032ZM41.0816 11.792V3.608H38.9216V2.048H41.1296V-1.84H42.8576V2.048H46.6016V3.608H42.8576V11.24L44.0576 12.44H46.6016V14H43.2896L41.0816 11.792ZM48.5131 12.032V8.984L50.4811 7.04H56.8651V4.76L55.6651 3.584H51.5851L50.3851 4.76V5.744H48.6091V4.256L50.8171 2.048H56.4091L58.6171 4.256V14H56.9131V11.888L54.7051 14H50.4811L48.5131 12.032ZM54.3451 12.464L56.8651 10.04V8.576H51.2491L50.2891 9.512V11.528L51.2491 12.464H54.3451ZM61.6119 2.048H63.3399V4.184L65.4759 2.048H68.5719V3.632H65.9319L63.3879 6.176V14H61.6119V2.048ZM71.4463 11.792V3.608H69.2863V2.048H71.4943V-1.84H73.2223V2.048H76.9663V3.608H73.2223V11.24L74.4223 12.44H76.9663V14H73.6543L71.4463 11.792ZM78.6463 11.792V4.256L80.8543 2.048H86.8783L89.1103 4.256V8.552H80.4223V11.24L81.6223 12.416H86.1103L87.3103 11.24V10.328H89.0863V11.792L86.8783 14H80.8543L78.6463 11.792ZM87.3343 7.016V4.808L86.1343 3.632H81.6223L80.4223 4.808V7.016H87.3343ZM91.6194 11.792V4.256L93.8274 2.048H98.4354L100.403 3.776V-3.136H102.179V14H100.451V11.816L98.2674 14H93.8274L91.6194 11.792ZM97.8834 12.416L100.403 9.896V5.648L98.0994 3.632H94.5954L93.3954 4.808V11.24L94.5954 12.416H97.8834ZM110.561 -0.688001V-1.744L111.281 -2.464H112.337L113.057 -1.744V-0.688001L112.337 0.0319996H111.281L110.561 -0.688001ZM110.921 2.048H112.697V14H110.921V2.048ZM116.06 2.048H117.788V4.592L120.332 2.048H124.004L126.212 4.256V14H124.436V4.808L123.236 3.632H120.812L117.836 6.608V14H116.06V2.048ZM128.621 12.032V10.544H130.397V11.528L131.357 12.464H135.773L136.733 11.528V9.68L135.773 8.72H130.613L128.717 6.824V4.016L130.685 2.048H136.301L138.269 4.016V5.504H136.493V4.52L135.533 3.584H131.453L130.493 4.52V6.272L131.453 7.232H136.541L138.509 9.2V12.032L136.541 14H130.589L128.621 12.032ZM142.102 11.792V3.608H139.942V2.048H142.15V-1.84H143.878V2.048H147.622V3.608H143.878V11.24L145.078 12.44H147.622V14H144.31L142.102 11.792ZM149.533 12.032V8.984L151.501 7.04H157.885V4.76L156.685 3.584H152.605L151.405 4.76V5.744H149.629V4.256L151.837 2.048H157.429L159.637 4.256V14H157.933V11.888L155.725 14H151.501L149.533 12.032ZM155.365 12.464L157.885 10.04V8.576H152.269L151.309 9.512V11.528L152.269 12.464H155.365ZM162.632 2.048H164.36V4.592L166.904 2.048H170.576L172.784 4.256V14H171.008V4.808L169.808 3.632H167.384L164.408 6.608V14H162.632V2.048ZM176.638 11.792V3.608H174.478V2.048H176.686V-1.84H178.414V2.048H182.158V3.608H178.414V11.24L179.614 12.44H182.158V14H178.846L176.638 11.792ZM184.55 -3.136H186.326V14H184.55V-3.136ZM199.631 2.048V17.048L197.423 19.232H191.663L189.815 17.384V15.92H191.591V16.832L192.431 17.648H196.655L197.855 16.472V11.456L195.311 14H191.663L189.455 11.792V2.048H191.231V11.24L192.431 12.416H194.831L197.855 9.392V2.048H199.631ZM207.178 2.048H209.002L211.042 11.984H211.114L213.994 2.048H215.722L218.338 11.984H218.41L220.642 2.048H222.466L219.442 14H217.522L214.882 4.136H214.81L211.93 14H209.986L207.178 2.048ZM224.507 -0.688001V-1.744L225.227 -2.464H226.283L227.003 -1.744V-0.688001L226.283 0.0319996H225.227L224.507 -0.688001ZM224.867 2.048H226.643V14H224.867V2.048ZM231.087 11.792V3.608H228.927V2.048H231.135V-1.84H232.863V2.048H236.607V3.608H232.863V11.24L234.063 12.44H236.607V14H233.295L231.087 11.792ZM238.878 -3.136H240.654V4.544L243.15 2.048H246.87L249.078 4.256V14H247.302V4.808L246.102 3.632H243.63L240.654 6.608V14H238.878V-3.136ZM257.225 11.792V4.256L259.433 2.048H265.577L267.785 4.256V11.792L265.577 14H259.433L257.225 11.792ZM264.809 12.416L266.009 11.24V4.808L264.809 3.632H260.201L259.001 4.808V11.24L260.201 12.416H264.809ZM270.552 11.792V2.048H272.328V11.24L273.528 12.416H275.928L278.904 9.44V2.048H280.68V14H278.952V11.456L276.408 14H272.76L270.552 11.792ZM283.81 2.048H285.538V4.184L287.674 2.048H290.77V3.632H288.13L285.586 6.176V14H283.81V2.048ZM298.063 -3.136H299.839V14H298.063V-3.136ZM302.848 11.792V4.256L305.056 2.048H311.2L313.408 4.256V11.792L311.2 14H305.056L302.848 11.792ZM310.432 12.416L311.632 11.24V4.808L310.432 3.632H305.824L304.624 4.808V11.24L305.824 12.416H310.432ZM316.056 11.792V4.256L318.264 2.048H324.024L326.232 4.256V5.72H324.456V4.808L323.256 3.632H319.032L317.832 4.808V11.24L319.032 12.416H323.256L324.456 11.24V10.328H326.232V11.792L324.024 14H318.264L316.056 11.792ZM328.276 12.032V8.984L330.244 7.04H336.628V4.76L335.428 3.584H331.348L330.148 4.76V5.744H328.372V4.256L330.58 2.048H336.172L338.38 4.256V14H336.676V11.888L334.468 14H330.244L328.276 12.032ZM334.108 12.464L336.628 10.04V8.576H331.012L330.052 9.512V11.528L331.012 12.464H334.108ZM341.495 -3.136H343.271V14H341.495V-3.136ZM346.04 7.112H353.048V8.696H346.04V7.112ZM366.016 14H364.24V3.632H358.552V14H356.776V3.632H354.616V2.048H356.776V-0.952001L358.864 -3.04H362.32V-1.504H359.632L358.552 -0.424V2.048H366.016V14ZM369.138 2.048H370.866V4.184L373.002 2.048H376.098V3.632H373.458L370.914 6.176V14H369.138V2.048ZM376.941 12.032V10.544H378.717V11.528L379.677 12.464H384.093L385.053 11.528V9.68L384.093 8.72H378.933L377.037 6.824V4.016L379.005 2.048H384.621L386.589 4.016V5.504H384.813V4.52L383.853 3.584H379.773L378.813 4.52V6.272L379.773 7.232H384.861L386.829 9.2V12.032L384.861 14H378.909L376.941 12.032ZM390.422 11.792V3.608H388.262V2.048H390.47V-1.84H392.198V2.048H395.942V3.608H392.198V11.24L393.398 12.44H395.942V14H392.63L390.422 11.792ZM403.593 11.792V-3.136H405.369V4.376L407.697 2.048H411.897L414.105 4.256V11.792L411.897 14H405.801L403.593 11.792ZM411.129 12.416L412.329 11.24V4.808L411.129 3.632H408.201L405.369 6.464V11.24L406.569 12.416H411.129ZM416.868 11.792V2.048H418.644V11.24L419.844 12.416H422.244L425.22 9.44V2.048H426.996V14H425.268V11.456L422.724 14H419.076L416.868 11.792ZM430.005 -0.688001V-1.744L430.725 -2.464H431.781L432.501 -1.744V-0.688001L431.781 0.0319996H430.725L430.005 -0.688001ZM430.365 2.048H432.141V14H430.365V2.048ZM435.625 -3.136H437.401V14H435.625V-3.136ZM440.41 11.792V4.256L442.618 2.048H447.226L449.194 3.776V-3.136H450.97V14H449.242V11.816L447.058 14H442.618L440.41 11.792ZM446.674 12.416L449.194 9.896V5.648L446.89 3.632H443.386L442.186 4.808V11.24L443.386 12.416H446.674ZM453.852 11.792V4.256L456.06 2.048H462.084L464.316 4.256V8.552H455.628V11.24L456.828 12.416H461.316L462.516 11.24V10.328H464.292V11.792L462.084 14H456.06L453.852 11.792ZM462.54 7.016V4.808L461.34 3.632H456.828L455.628 4.808V7.016H462.54ZM467.065 2.048H468.793V4.184L470.929 2.048H474.025V3.632H471.385L468.841 6.176V14H467.065V2.048ZM473.228 13.304V12.248L473.924 11.552H474.98L475.676 12.248V13.304L474.98 14H473.924L473.228 13.304ZM-14.08 29.2H-12.304L-3.544 43.024H-3.496V29.2H-1.768V46H-3.544L-12.304 32.176H-12.352V46H-14.08V29.2ZM1.22844 43.792V36.256L3.43644 34.048H9.58044L11.7884 36.256V43.792L9.58044 46H3.43644L1.22844 43.792ZM8.81244 44.416L10.0124 43.24V36.808L8.81244 35.632H4.20444L3.00444 36.808V43.24L4.20444 44.416H8.81244ZM19.4553 44.032V42.544H21.2313V43.528L22.1913 44.464H26.6073L27.5673 43.528V41.68L26.6073 40.72H21.4473L19.5513 38.824V36.016L21.5193 34.048H27.1353L29.1033 36.016V37.504H27.3273V36.52L26.3673 35.584H22.2873L21.3273 36.52V38.272L22.2873 39.232H27.3753L29.3433 41.2V44.032L27.3753 46H21.4233L19.4553 44.032ZM31.7366 31.312V30.256L32.4566 29.536H33.5126L34.2326 30.256V31.312L33.5126 32.032H32.4566L31.7366 31.312ZM32.0966 34.048H33.8726V46H32.0966V34.048ZM47.5559 34.048V49.048L45.3719 51.232H39.4439L37.5959 49.384V47.92H39.3719V48.808L40.2119 49.648H44.5799L45.7799 48.472V44.008L43.5719 46H39.2039L36.9959 43.792V36.256L39.2039 34.048H43.7399L45.8279 36.136V34.048H47.5559ZM45.7799 38.152L43.2599 35.632H39.9719L38.7719 36.808V43.24L39.9719 44.416H43.2839L45.7799 42.088V38.152ZM50.6778 34.048H52.4058V36.592L54.9498 34.048H58.6218L60.8298 36.256V46H59.0538V36.808L57.8538 35.632H55.4298L52.4538 38.608V46H50.6778V34.048ZM63.7184 43.792V34.048H65.4944V43.24L66.6944 44.416H69.0944L72.0704 41.44V34.048H73.8464V46H72.1184V43.456L69.5744 46H65.9264L63.7184 43.792ZM76.9756 34.048H78.7036V36.184L80.8396 34.048H85.3276L87.5356 36.256V43.792L85.3276 46H80.7196L78.7516 44.272V51.088H76.9756V34.048ZM84.5596 44.416L85.7596 43.24V36.808L84.5596 35.632H81.3196L78.7516 38.2V42.328L81.0556 44.416H84.5596ZM89.8175 44.032V42.544H91.5935V43.528L92.5535 44.464H96.9695L97.9295 43.528V41.68L96.9695 40.72H91.8095L89.9135 38.824V36.016L91.8815 34.048H97.4975L99.4655 36.016V37.504H97.6895V36.52L96.7295 35.584H92.6495L91.6895 36.52V38.272L92.6495 39.232H97.7375L99.7055 41.2V44.032L97.7375 46H91.7855L89.8175 44.032ZM101.432 45.304V44.248L102.128 43.552H103.184L103.88 44.248V45.304L103.184 46H102.128L101.432 45.304ZM111.949 29.2H113.725L122.485 43.024H122.533V29.2H124.261V46H122.485L113.725 32.176H113.677V46H111.949V29.2ZM127.257 43.792V36.256L129.465 34.048H135.609L137.817 36.256V43.792L135.609 46H129.465L127.257 43.792ZM134.841 44.416L136.041 43.24V36.808L134.841 35.632H130.233L129.033 36.808V43.24L130.233 44.416H134.841ZM147.164 43.792V35.608H145.004V34.048H147.212V30.16H148.94V34.048H152.684V35.608H148.94V43.24L150.14 44.44H152.684V46H149.372L147.164 43.792ZM154.956 34.048H156.684V36.184L158.82 34.048H161.916V35.632H159.276L156.732 38.176V46H154.956V34.048ZM162.741 44.032V40.984L164.709 39.04H171.093V36.76L169.893 35.584H165.813L164.613 36.76V37.744H162.837V36.256L165.045 34.048H170.637L172.845 36.256V46H171.141V43.888L168.933 46H164.709L162.741 44.032ZM168.573 44.464L171.093 42.04V40.576H165.477L164.517 41.512V43.528L165.477 44.464H168.573ZM175.6 43.792V36.256L177.808 34.048H183.568L185.776 36.256V37.72H184V36.808L182.8 35.632H178.576L177.376 36.808V43.24L178.576 44.416H182.8L184 43.24V42.328H185.776V43.792L183.568 46H177.808L175.6 43.792ZM188.18 28.864H189.956V38.992H192.764L196.268 34.048H198.236L194.204 39.808L198.476 46H196.508L192.764 40.576H189.956V46H188.18V28.864ZM200.166 31.312V30.256L200.886 29.536H201.942L202.662 30.256V31.312L201.942 32.032H200.886L200.166 31.312ZM200.526 34.048H202.302V46H200.526V34.048ZM205.665 34.048H207.393V36.592L209.937 34.048H213.609L215.817 36.256V46H214.041V36.808L212.841 35.632H210.417L207.441 38.608V46H205.665V34.048ZM229.146 34.048V49.048L226.962 51.232H221.034L219.186 49.384V47.92H220.962V48.808L221.802 49.648H226.17L227.37 48.472V44.008L225.162 46H220.794L218.586 43.792V36.256L220.794 34.048H225.33L227.418 36.136V34.048H229.146ZM227.37 38.152L224.85 35.632H221.562L220.362 36.808V43.24L221.562 44.416H224.874L227.37 42.088V38.152ZM231.716 45.304V44.248L232.412 43.552H233.468L234.164 44.248V45.304L233.468 46H232.412L231.716 45.304ZM241.153 43.36V40.984H242.929V42.76L244.561 44.368H248.665L250.033 43.024V29.2H251.857V43.6L249.457 46H243.793L241.153 43.36ZM254.848 43.792V34.048H256.624V43.24L257.824 44.416H260.224L263.2 41.44V34.048H264.976V46H263.248V43.456L260.704 46H257.056L254.848 43.792ZM267.506 44.032V42.544H269.282V43.528L270.242 44.464H274.658L275.618 43.528V41.68L274.658 40.72H269.498L267.602 38.824V36.016L269.57 34.048H275.186L277.154 36.016V37.504H275.378V36.52L274.418 35.584H270.338L269.378 36.52V38.272L270.338 39.232H275.426L277.394 41.2V44.032L275.426 46H269.474L267.506 44.032ZM280.987 43.792V35.608H278.827V34.048H281.035V30.16H282.763V34.048H286.507V35.608H282.763V43.24L283.963 44.44H286.507V46H283.195L280.987 43.792ZM293.798 44.032V40.984L295.766 39.04H302.15V36.76L300.95 35.584H296.87L295.67 36.76V37.744H293.894V36.256L296.102 34.048H301.694L303.902 36.256V46H302.198V43.888L299.99 46H295.766L293.798 44.032ZM299.63 44.464L302.15 42.04V40.576H296.534L295.574 41.512V43.528L296.534 44.464H299.63ZM312.036 43.792V36.256L314.244 34.048H320.004L322.212 36.256V37.72H320.436V36.808L319.236 35.632H315.012L313.812 36.808V43.24L315.012 44.416H319.236L320.436 43.24V42.328H322.212V43.792L320.004 46H314.244L312.036 43.792ZM324.736 28.864H326.512V46H324.736V28.864ZM329.521 43.792V36.256L331.729 34.048H337.753L339.985 36.256V40.552H331.297V43.24L332.497 44.416H336.985L338.185 43.24V42.328H339.961V43.792L337.753 46H331.729L329.521 43.792ZM338.209 39.016V36.808L337.009 35.632H332.497L331.297 36.808V39.016H338.209ZM342.374 44.032V40.984L344.342 39.04H350.726V36.76L349.526 35.584H345.446L344.246 36.76V37.744H342.47V36.256L344.678 34.048H350.27L352.478 36.256V46H350.774V43.888L348.566 46H344.342L342.374 44.032ZM348.206 44.464L350.726 42.04V40.576H345.11L344.15 41.512V43.528L345.11 44.464H348.206ZM355.473 34.048H357.201V36.592L359.745 34.048H363.417L365.625 36.256V46H363.849V36.808L362.649 35.632H360.225L357.249 38.608V46H355.473V34.048ZM373.413 44.032V42.544H375.189V43.528L376.149 44.464H380.565L381.525 43.528V41.68L380.565 40.72H375.405L373.509 38.824V36.016L375.477 34.048H381.093L383.061 36.016V37.504H381.285V36.52L380.325 35.584H376.245L375.285 36.52V38.272L376.245 39.232H381.333L383.301 41.2V44.032L381.333 46H375.381L373.413 44.032ZM386.894 43.792V35.608H384.734V34.048H386.942V30.16H388.67V34.048H392.414V35.608H388.67V43.24L389.87 44.44H392.414V46H389.102L386.894 43.792ZM394.326 44.032V40.984L396.294 39.04H402.678V36.76L401.478 35.584H397.398L396.198 36.76V37.744H394.422V36.256L396.63 34.048H402.222L404.43 36.256V46H402.726V43.888L400.518 46H396.294L394.326 44.032ZM400.158 44.464L402.678 42.04V40.576H397.062L396.102 41.512V43.528L397.062 44.464H400.158ZM407.425 34.048H409.153V36.184L411.289 34.048H414.385V35.632H411.745L409.201 38.176V46H407.425V34.048ZM417.259 43.792V35.608H415.099V34.048H417.307V30.16H419.035V34.048H422.779V35.608H419.035V43.24L420.235 44.44H422.779V46H419.467L417.259 43.792ZM424.459 43.792V36.256L426.667 34.048H432.691L434.923 36.256V40.552H426.235V43.24L427.435 44.416H431.923L433.123 43.24V42.328H434.899V43.792L432.691 46H426.667L424.459 43.792ZM433.147 39.016V36.808L431.947 35.632H427.435L426.235 36.808V39.016H433.147ZM437.672 34.048H439.4V36.184L441.536 34.048H444.632V35.632H441.992L439.448 38.176V46H437.672V34.048ZM451.806 28.864H453.582V38.992H456.39L459.894 34.048H461.862L457.83 39.808L462.102 46H460.134L456.39 40.576H453.582V46H451.806V28.864ZM463.792 31.312V30.256L464.512 29.536H465.568L466.288 30.256V31.312L465.568 32.032H464.512L463.792 31.312ZM464.152 34.048H465.928V46H464.152V34.048ZM470.371 43.792V35.608H468.211V34.048H470.419V30.16H472.147V34.048H475.891V35.608H472.147V43.24L473.347 44.44H475.891V46H472.579L470.371 43.792ZM484.622 43.792V35.608H482.462V34.048H484.67V30.16H486.398V34.048H490.142V35.608H486.398V43.24L487.598 44.44H490.142V46H486.83L484.622 43.792ZM492.414 28.864H494.19V36.544L496.686 34.048H500.406L502.614 36.256V46H500.838V36.808L499.638 35.632H497.166L494.19 38.608V46H492.414V28.864ZM505.261 44.032V40.984L507.229 39.04H513.613V36.76L512.413 35.584H508.333L507.133 36.76V37.744H505.357V36.256L507.565 34.048H513.157L515.365 36.256V46H513.661V43.888L511.453 46H507.229L505.261 44.032ZM511.093 44.464L513.613 42.04V40.576H507.997L507.037 41.512V43.528L507.997 44.464H511.093ZM519.206 43.792V35.608H517.046V34.048H519.254V30.16H520.982V34.048H524.726V35.608H520.982V43.24L522.182 44.44H524.726V46H521.414L519.206 43.792ZM532.377 34.048H534.105V36.184L536.241 34.048H539.337V35.632H536.697L534.153 38.176V46H532.377V34.048ZM541.011 43.792V34.048H542.787V43.24L543.987 44.416H546.387L549.363 41.44V34.048H551.139V46H549.411V43.456L546.867 46H543.219L541.011 43.792ZM554.268 34.048H555.996V36.592L558.54 34.048H562.212L564.42 36.256V46H562.644V36.808L561.444 35.632H559.02L556.044 38.608V46H554.268V34.048ZM566.829 44.032V42.544H568.605V43.528L569.565 44.464H573.981L574.941 43.528V41.68L573.981 40.72H568.821L566.925 38.824V36.016L568.893 34.048H574.509L576.477 36.016V37.504H574.701V36.52L573.741 35.584H569.661L568.701 36.52V38.272L569.661 39.232H574.749L576.717 41.2V44.032L574.749 46H568.797L566.829 44.032ZM584.369 43.792V36.256L586.577 34.048H592.721L594.929 36.256V43.792L592.721 46H586.577L584.369 43.792ZM591.953 44.416L593.153 43.24V36.808L591.953 35.632H587.345L586.145 36.808V43.24L587.345 44.416H591.953ZM597.817 34.048H599.545V36.592L602.089 34.048H605.761L607.969 36.256V46H606.193V36.808L604.993 35.632H602.569L599.593 38.608V46H597.817V34.048ZM626.413 34.048V49.048L624.205 51.232H618.445L616.597 49.384V47.92H618.373V48.832L619.213 49.648H623.437L624.637 48.472V43.456L622.093 46H618.445L616.237 43.792V34.048H618.013V43.24L619.213 44.416H621.613L624.637 41.392V34.048H626.413ZM629.301 43.792V36.256L631.509 34.048H637.653L639.861 36.256V43.792L637.653 46H631.509L629.301 43.792ZM636.885 44.416L638.085 43.24V36.808L636.885 35.632H632.277L631.077 36.808V43.24L632.277 44.416H636.885ZM642.628 43.792V34.048H644.404V43.24L645.604 44.416H648.004L650.98 41.44V34.048H652.756V46H651.028V43.456L648.484 46H644.836L642.628 43.792ZM655.886 34.048H657.614V36.184L659.75 34.048H662.846V35.632H660.206L657.662 38.176V46H655.886V34.048ZM669.779 43.792V36.256L671.987 34.048H676.595L678.563 35.776V28.864H680.339V46H678.611V43.816L676.427 46H671.987L669.779 43.792ZM676.043 44.416L678.563 41.896V37.648L676.259 35.632H672.755L671.555 36.808V43.24L672.755 44.416H676.043ZM683.221 43.792V36.256L685.429 34.048H691.453L693.685 36.256V40.552H684.997V43.24L686.197 44.416H690.685L691.885 43.24V42.328H693.661V43.792L691.453 46H685.429L683.221 43.792ZM691.909 39.016V36.808L690.709 35.632H686.197L684.997 36.808V39.016H691.909ZM694.76 34.048H696.584L700.136 44.224H700.232L703.784 34.048H705.608L701.216 46H699.152L694.76 34.048ZM707.178 31.312V30.256L707.898 29.536H708.954L709.674 30.256V31.312L708.954 32.032H707.898L707.178 31.312ZM707.538 34.048H709.314V46H707.538V34.048ZM712.438 43.792V36.256L714.646 34.048H720.406L722.614 36.256V37.72H720.838V36.808L719.638 35.632H715.414L714.214 36.808V43.24L715.414 44.416H719.638L720.838 43.24V42.328H722.614V43.792L720.406 46H714.646L712.438 43.792ZM724.778 43.792V36.256L726.986 34.048H733.01L735.242 36.256V40.552H726.554V43.24L727.754 44.416H732.242L733.442 43.24V42.328H735.218V43.792L733.01 46H726.986L724.778 43.792ZM733.466 39.016V36.808L732.266 35.632H727.754L726.554 36.808V39.016H733.466ZM742.89 39.112H757.698V40.696H742.89V39.112ZM776.027 34.048V49.048L773.843 51.232H767.915L766.067 49.384V47.92H767.843V48.808L768.683 49.648H773.051L774.251 48.472V44.008L772.043 46H767.675L765.467 43.792V36.256L767.675 34.048H772.211L774.299 36.136V34.048H776.027ZM774.251 38.152L771.731 35.632H768.443L767.243 36.808V43.24L768.443 44.416H771.755L774.251 42.088V38.152ZM779.029 31.312V30.256L779.749 29.536H780.805L781.525 30.256V31.312L780.805 32.032H779.749L779.029 31.312ZM779.389 34.048H781.165V46H779.389V34.048ZM783.088 34.048H784.912L788.464 44.224H788.56L792.112 34.048H793.936L789.544 46H787.48L783.088 34.048ZM795.507 31.312V30.256L796.227 29.536H797.283L798.003 30.256V31.312L797.283 32.032H796.227L795.507 31.312ZM795.867 34.048H797.643V46H795.867V34.048ZM801.006 34.048H802.734V36.592L805.278 34.048H808.95L811.158 36.256V46H809.382V36.808L808.182 35.632H805.758L802.782 38.608V46H801.006V34.048ZM824.487 34.048V49.048L822.303 51.232H816.375L814.527 49.384V47.92H816.303V48.808L817.143 49.648H821.511L822.711 48.472V44.008L820.503 46H816.135L813.927 43.792V36.256L816.135 34.048H820.671L822.759 36.136V34.048H824.487ZM822.711 38.152L820.191 35.632H816.903L815.703 36.808V43.24L816.903 44.416H820.215L822.711 42.088V38.152ZM843.044 34.048V49.048L840.836 51.232H835.076L833.228 49.384V47.92H835.004V48.832L835.844 49.648H840.068L841.268 48.472V43.456L838.724 46H835.076L832.868 43.792V34.048H834.644V43.24L835.844 44.416H838.244L841.268 41.392V34.048H843.044ZM845.932 43.792V36.256L848.14 34.048H854.284L856.492 36.256V43.792L854.284 46H848.14L845.932 43.792ZM853.516 44.416L854.716 43.24V36.808L853.516 35.632H848.908L847.708 36.808V43.24L848.908 44.416H853.516ZM859.259 43.792V34.048H861.035V43.24L862.235 44.416H864.635L867.611 41.44V34.048H869.387V46H867.659V43.456L865.115 46H861.467L859.259 43.792ZM878.976 35.608H876.816V34.048H878.976V31.384L881.064 29.296H884.52V30.832H881.832L880.752 31.888V34.048H884.52V35.608H880.752V46H878.976V35.608ZM886.202 43.792V34.048H887.978V43.24L889.178 44.416H891.578L894.554 41.44V34.048H896.33V46H894.602V43.456L892.058 46H888.41L886.202 43.792ZM899.579 28.864H901.355V46H899.579V28.864ZM904.724 28.864H906.5V46H904.724V28.864ZM914.889 43.792V36.256L917.097 34.048H922.857L925.065 36.256V37.72H923.289V36.808L922.089 35.632H917.865L916.665 36.808V43.24L917.865 44.416H922.089L923.289 43.24V42.328H925.065V43.792L922.857 46H917.097L914.889 43.792ZM927.229 43.792V36.256L929.437 34.048H935.581L937.789 36.256V43.792L935.581 46H929.437L927.229 43.792ZM934.813 44.416L936.013 43.24V36.808L934.813 35.632H930.205L929.005 36.808V43.24L930.205 44.416H934.813ZM940.677 34.048H942.405V36.592L944.949 34.048H948.621L950.829 36.256V46H949.053V36.808L947.853 35.632H945.429L942.453 38.608V46H940.677V34.048ZM954.683 43.792V35.608H952.523V34.048H954.731V30.16H956.459V34.048H960.203V35.608H956.459V43.24L957.659 44.44H960.203V46H956.891L954.683 43.792ZM962.474 34.048H964.202V36.184L966.338 34.048H969.434V35.632H966.794L964.25 38.176V46H962.474V34.048ZM970.379 43.792V36.256L972.587 34.048H978.731L980.939 36.256V43.792L978.731 46H972.587L970.379 43.792ZM977.963 44.416L979.163 43.24V36.808L977.963 35.632H973.355L972.155 36.808V43.24L973.355 44.416H977.963ZM983.947 28.864H985.723V46H983.947V28.864ZM995.431 35.608H993.271V34.048H995.431V31.384L997.519 29.296H1000.98V30.832H998.287L997.207 31.888V34.048H1000.98V35.608H997.207V46H995.431V35.608ZM1002.78 34.048H1004.51V36.184L1006.64 34.048H1009.74V35.632H1007.1L1004.55 38.176V46H1002.78V34.048ZM1010.68 43.792V36.256L1012.89 34.048H1019.03L1021.24 36.256V43.792L1019.03 46H1012.89L1010.68 43.792ZM1018.27 44.416L1019.47 43.24V36.808L1018.27 35.632H1013.66L1012.46 36.808V43.24L1013.66 44.416H1018.27ZM1024.13 34.048H1025.86V36.352L1028.16 34.048H1031.02L1032.89 35.92L1034.76 34.048H1038.53L1040.74 36.256V46H1038.96V36.808L1037.76 35.632H1035.12L1033.44 37.312V46H1031.71V36.808L1030.51 35.632H1028.5L1025.91 38.224V46H1024.13V34.048ZM1050.2 43.792V35.608H1048.04V34.048H1050.24V30.16H1051.97V34.048H1055.72V35.608H1051.97V43.24L1053.17 44.44H1055.72V46H1052.4L1050.2 43.792ZM1057.99 28.864H1059.76V36.544L1062.26 34.048H1065.98L1068.19 36.256V46H1066.41V36.808L1065.21 35.632H1062.74L1059.76 38.608V46H1057.99V28.864ZM1070.95 43.792V36.256L1073.16 34.048H1079.19L1081.42 36.256V40.552H1072.73V43.24L1073.93 44.416H1078.42L1079.62 43.24V42.328H1081.39V43.792L1079.19 46H1073.16L1070.95 43.792ZM1079.64 39.016V36.808L1078.44 35.632H1073.93L1072.73 36.808V39.016H1079.64ZM1088.11 34.048H1089.93L1093.48 44.224H1093.58L1097.13 34.048H1098.95L1094.56 46H1092.5L1088.11 34.048ZM1100.17 43.792V36.256L1102.38 34.048H1108.4L1110.63 36.256V40.552H1101.95V43.24L1103.15 44.416H1107.63L1108.83 43.24V42.328H1110.61V43.792L1108.4 46H1102.38L1100.17 43.792ZM1108.86 39.016V36.808L1107.66 35.632H1103.15L1101.95 36.808V39.016H1108.86ZM1113.38 34.048H1115.11V36.184L1117.25 34.048H1120.34V35.632H1117.7L1115.16 38.176V46H1113.38V34.048ZM1132.19 34.048V49.048L1129.99 51.232H1124.23L1122.38 49.384V47.92H1124.15V48.832L1124.99 49.648H1129.22L1130.42 48.472V43.456L1127.87 46H1124.23L1122.02 43.792V34.048H1123.79V43.24L1124.99 44.416H1127.39L1130.42 41.392V34.048H1132.19ZM1151.02 46H1149.25V35.632H1143.56V46H1141.78V35.632H1139.62V34.048H1141.78V31.048L1143.87 28.96H1147.33V30.496H1144.64L1143.56 31.576V34.048H1151.02V46ZM1154.14 34.048H1155.87V36.184L1158.01 34.048H1161.1V35.632H1158.46L1155.92 38.176V46H1154.14V34.048ZM1161.95 44.032V42.544H1163.72V43.528L1164.68 44.464H1169.1L1170.06 43.528V41.68L1169.1 40.72H1163.94L1162.04 38.824V36.016L1164.01 34.048H1169.63L1171.59 36.016V37.504H1169.82V36.52L1168.86 35.584H1164.78L1163.82 36.52V38.272L1164.78 39.232H1169.87L1171.83 41.2V44.032L1169.87 46H1163.91L1161.95 44.032ZM1175.43 43.792V35.608H1173.27V34.048H1175.48V30.16H1177.2V34.048H1180.95V35.608H1177.2V43.24L1178.4 44.44H1180.95V46H1177.64L1175.43 43.792ZM1188.36 43.792V36.256L1190.57 34.048H1196.33L1198.53 36.256V37.72H1196.76V36.808L1195.56 35.632H1191.33L1190.13 36.808V43.24L1191.33 44.416H1195.56L1196.76 43.24V42.328H1198.53V43.792L1196.33 46H1190.57L1188.36 43.792ZM1201.06 28.864H1202.83V46H1201.06V28.864ZM1205.96 31.312V30.256L1206.68 29.536H1207.74L1208.46 30.256V31.312L1207.74 32.032H1206.68L1205.96 31.312ZM1206.32 34.048H1208.1V46H1206.32V34.048ZM1211.22 43.792V36.256L1213.43 34.048H1219.19L1221.4 36.256V37.72H1219.62V36.808L1218.42 35.632H1214.2L1213 36.808V43.24L1214.2 44.416H1218.42L1219.62 43.24V42.328H1221.4V43.792L1219.19 46H1213.43L1211.22 43.792ZM1223.8 28.864H1225.58V38.992H1228.39L1231.89 34.048H1233.86L1229.83 39.808L1234.1 46H1232.13L1228.39 40.576H1225.58V46H1223.8V28.864ZM1235.36 45.304V44.248L1236.05 43.552H1237.11L1237.81 44.248V45.304L1237.11 46H1236.05L1235.36 45.304Z" fill="#2A2A3F"/>
</g>
</g>
</g>
<g id="Background_3">
<rect width="1440" height="501" transform="translate(-96 -72)" fill="#FDE272"/>
<g id="Frame 1000007740_2">
<g id="Featured icon">
<rect x="-16" y="-16" width="80" height="80" rx="40" fill="#F79009"/>
<g id="ai-magic">
<path id="Vector" d="M20 14L18.9683 16.7881C17.6155 20.444 16.9391 22.272 15.6056 23.6056C14.2721 24.939 12.4441 25.6154 8.7881 26.9684L6 28L8.7881 29.0316C12.4441 30.3846 14.2721 31.061 15.6056 32.3944C16.9391 33.728 17.6155 35.556 18.9683 39.2118L20 42L21.0316 39.2118C22.3846 35.556 23.061 33.728 24.3944 32.3944C25.728 31.061 27.556 30.3846 31.2118 29.0316L34 28L31.2118 26.9684C27.556 25.6154 25.728 24.939 24.3944 23.6056C23.061 22.272 22.3846 20.444 21.0316 16.7881L20 14Z" stroke="white" stroke-width="5" stroke-linejoin="round"/>
<path id="Vector_2" d="M36 6L35.5578 7.1949C34.978 8.76174 34.6882 9.54518 34.1166 10.1167C33.5452 10.6882 32.7618 10.9781 31.195 11.5578L30 12L31.195 12.4422C32.7618 13.0219 33.5452 13.3118 34.1166 13.8833C34.6882 14.4548 34.978 15.2383 35.5578 16.8051L36 18L36.4422 16.8051C37.022 15.2383 37.3118 14.4548 37.8834 13.8833C38.4548 13.3118 39.2382 13.0219 40.805 12.4422L42 12L40.805 11.5578C39.2382 10.9781 38.4548 10.6882 37.8834 10.1167C37.3118 9.54518 37.022 8.76174 36.4422 7.1949L36 6Z" stroke="white" stroke-width="5" stroke-linejoin="round"/>
</g>
</g>
</g>
</g>
</g>
</g>
</g>
</svg>
